<svg width="16" height="14" viewBox="0 0 16 14" fill="none" xmlns="http://www.w3.org/2000/svg">
<path d="M14.768 1.096C14.528 0.887999 14.144 0.855999 13.76 1.016C13.344 1.176 2.16 5.976 1.696 6.184C1.616 6.216 0.895999 6.488 0.959999 7.08C1.024 7.624 1.616 7.848 1.68 7.88L4.528 8.856C4.72 9.48 5.408 11.8 5.568 12.296C5.664 12.6 5.824 13.016 6.096 13.096C6.336 13.192 6.576 13.112 6.736 12.984L8.48 11.368L11.28 13.56L11.344 13.592C11.536 13.672 11.712 13.72 11.888 13.72C12.016 13.72 12.16 13.688 12.272 13.64C12.688 13.464 12.864 13.064 12.88 13.016L14.976 2.104C15.12 1.544 14.928 1.24 14.768 1.096ZM7.04 9.24L6.08 11.8L5.12 8.6L12.48 3.16L7.04 9.24Z" fill="#121212"/>
</svg>
