<svg width="22" height="18" viewBox="0 0 22 18" fill="none" xmlns="http://www.w3.org/2000/svg">
<path d="M21.4 2.14666C20.6267 2.49333 19.8 2.70666 18.9467 2.81333C19.8267 2.27999 20.4933 1.45333 20.8133 0.439995C19.9867 0.919995 19.08 1.29333 18.0933 1.47999C17.32 0.653328 16.2 0.119995 14.9733 0.119995C12.6267 0.119995 10.7067 2.03999 10.7067 4.38666C10.7067 4.73333 10.7333 5.05333 10.8133 5.34666C7.26667 5.15999 4.12 3.48 2.01334 0.893329C1.64 1.53333 1.42667 2.25333 1.42667 3.02666C1.42667 4.52 2.17334 5.79999 3.32 6.57333C2.62667 6.54666 1.96 6.35999 1.4 6.04C1.4 6.06666 1.4 6.06666 1.4 6.09333C1.4 8.17333 2.86667 9.87999 4.81334 10.28C4.46667 10.3867 4.06667 10.44 3.69334 10.44C3.42667 10.44 3.16 10.4133 2.89334 10.36C3.42667 12.0667 5 13.2933 6.86667 13.32C5.4 14.4667 3.56 15.16 1.56 15.16C1.21334 15.16 0.866669 15.1333 0.546669 15.1067C2.44 16.3067 4.68 17.0267 7.08 17.0267C14.92 17.0267 19.2133 10.52 19.2133 4.89333C19.2133 4.70666 19.2133 4.51999 19.2133 4.33333C20.0933 3.74666 20.84 2.99999 21.4 2.14666Z" fill="#363636"/>
</svg>
