<svg width="16" height="12" viewBox="0 0 16 12" fill="none" xmlns="http://www.w3.org/2000/svg">
<path d="M15.3755 0.965161C14.7974 0.27871 13.729 0 11.6955 0H4.30452C2.21935 0 1.13548 0.299355 0.562581 1.03226C0 1.74452 0 2.79226 0 4.24774V7.01935C0 9.83742 0.665807 11.2619 4.30452 11.2619H11.6955C13.4606 11.2619 14.4413 11.0142 15.071 10.4103C15.7213 9.79097 15.9948 8.77419 15.9948 7.01935V4.24774C16 2.71484 15.9587 1.65677 15.3755 0.965161ZM10.271 6.0129L6.91613 7.76774C6.83871 7.80903 6.76129 7.82452 6.67871 7.82452C6.58581 7.82452 6.4929 7.79871 6.41032 7.75226C6.25548 7.65936 6.16258 7.48903 6.16258 7.30839V3.80903C6.16258 3.62839 6.25548 3.46323 6.41032 3.37032C6.56516 3.27742 6.75613 3.27226 6.91613 3.35484L10.271 5.09935C10.4413 5.1871 10.5497 5.36258 10.5497 5.55871C10.5497 5.74968 10.4413 5.92516 10.271 6.0129Z" fill="#363636"/>
</svg>
