<svg width="26" height="22" viewBox="0 0 26 22" fill="none" xmlns="http://www.w3.org/2000/svg">
<path d="M8.01551 22C6.83074 22 5.75832 21.8162 4.79824 21.4485C3.8586 21.0604 3.06194 20.4578 2.40827 19.6407C1.7546 18.8236 1.24393 17.7716 0.876238 16.4847C0.528977 15.1978 0.355347 13.6351 0.355347 11.7967V10.2033C0.355347 8.38533 0.528977 6.83287 0.876238 5.54596C1.24393 4.25905 1.7546 3.20706 2.40827 2.38997C3.08237 1.55246 3.88924 0.949861 4.82888 0.582173C5.76853 0.194058 6.83074 0 8.01551 0C9.20029 0 10.2625 0.194058 11.2021 0.582173C12.1622 0.949861 12.9691 1.54225 13.6228 2.35933C14.2969 3.17642 14.8075 4.22841 15.1548 5.51532C15.502 6.80223 15.6757 8.3649 15.6757 10.2033V11.7967C15.6757 13.6147 15.4918 15.1671 15.1241 16.454C14.7769 17.7409 14.2662 18.8032 13.5921 19.6407C12.9384 20.4578 12.1418 21.0604 11.2021 21.4485C10.2625 21.8162 9.20029 22 8.01551 22ZM8.01551 18.5682C8.6079 18.5682 9.139 18.4661 9.60883 18.2618C10.0787 18.0576 10.477 17.7001 10.8038 17.1894C11.1306 16.6787 11.3758 15.9944 11.5392 15.1365C11.723 14.2581 11.815 13.1448 11.815 11.7967V10.2033C11.815 8.87558 11.723 7.78273 11.5392 6.92479C11.3553 6.04643 11.1 5.3519 10.7732 4.84123C10.4463 4.31012 10.048 3.94243 9.57819 3.73816C9.10836 3.53389 8.58747 3.43176 8.01551 3.43176C7.42313 3.43176 6.89202 3.53389 6.4222 3.73816C5.95237 3.94243 5.55405 4.29991 5.22721 4.81059C4.90038 5.32126 4.64504 6.01579 4.4612 6.89415C4.29778 7.75209 4.21607 8.85515 4.21607 10.2033V11.7967C4.21607 13.1244 4.29778 14.2275 4.4612 15.1059C4.64504 15.9638 4.90038 16.6583 5.22721 17.1894C5.57447 17.7001 5.9728 18.0576 6.4222 18.2618C6.89202 18.4661 7.42313 18.5682 8.01551 18.5682Z" fill="#F46F17"/>
<path d="M17.6781 3.15599L21.9678 0.275766H25.6447V21.7242H21.9678V4.07521L17.6781 6.92479V3.15599Z" fill="#F46F17"/>
</svg>
