<svg width="40" height="35" viewBox="0 0 40 35" fill="none" xmlns="http://www.w3.org/2000/svg">
<path d="M12 34.464C10.144 34.464 8.464 34.176 6.96 33.6C5.488 32.992 4.24 32.048 3.216 30.768C2.192 29.488 1.392 27.84 0.816 25.824C0.272 23.808 0 21.36 0 18.48V15.984C0 13.136 0.272 10.704 0.816 8.688C1.392 6.672 2.192 5.024 3.216 3.744C4.272 2.432 5.536 1.488 7.008 0.912C8.48 0.304 10.144 0 12 0C13.856 0 15.52 0.304 16.992 0.912C18.496 1.488 19.76 2.416 20.784 3.696C21.84 4.976 22.64 6.624 23.184 8.64C23.728 10.656 24 13.104 24 15.984V18.48C24 21.328 23.712 23.76 23.136 25.776C22.592 27.792 21.792 29.456 20.736 30.768C19.712 32.048 18.464 32.992 16.992 33.6C15.52 34.176 13.856 34.464 12 34.464ZM12 29.088C12.928 29.088 13.76 28.928 14.496 28.608C15.232 28.288 15.856 27.728 16.368 26.928C16.88 26.128 17.264 25.056 17.52 23.712C17.808 22.336 17.952 20.592 17.952 18.48V15.984C17.952 13.904 17.808 12.192 17.52 10.848C17.232 9.472 16.832 8.384 16.32 7.584C15.808 6.752 15.184 6.176 14.448 5.856C13.712 5.536 12.896 5.376 12 5.376C11.072 5.376 10.24 5.536 9.504 5.856C8.768 6.176 8.144 6.736 7.632 7.536C7.12 8.336 6.72 9.424 6.432 10.8C6.176 12.144 6.048 13.872 6.048 15.984V18.48C6.048 20.56 6.176 22.288 6.432 23.664C6.72 25.008 7.12 26.096 7.632 26.928C8.176 27.728 8.8 28.288 9.504 28.608C10.24 28.928 11.072 29.088 12 29.088Z" fill="#F7F7F7"/>
<path d="M27.1369 4.944L33.8569 0.432H39.6169V34.032H33.8569V6.384L27.1369 10.848V4.944Z" fill="#F7F7F7"/>
</svg>
