<svg width="32" height="22" viewBox="0 0 32 22" fill="none" xmlns="http://www.w3.org/2000/svg">
<path d="M7.54467 21.6683C6.37776 21.6683 5.32151 21.4872 4.37591 21.1251C3.45043 20.7428 2.66578 20.1493 2.02197 19.3445C1.37816 18.5398 0.875181 17.5036 0.513037 16.2361C0.171012 14.9686 0 13.4295 0 11.6188V10.0495C0 8.2589 0.171012 6.72984 0.513037 5.46234C0.875181 4.19484 1.37816 3.1587 2.02197 2.35394C2.6859 1.52905 3.48061 0.935539 4.40609 0.573395C5.33157 0.191132 6.37776 0 7.54467 0C8.71158 0 9.75777 0.191132 10.6832 0.573395C11.6288 0.935539 12.4236 1.51899 13.0674 2.32376C13.7313 3.12852 14.2343 4.16466 14.5763 5.43216C14.9183 6.69967 15.0893 8.23878 15.0893 10.0495V11.6188C15.0893 13.4094 14.9083 14.9384 14.5461 16.2059C14.2041 17.4735 13.7011 18.5196 13.0372 19.3445C12.3934 20.1493 11.6087 20.7428 10.6832 21.1251C9.75777 21.4872 8.71158 21.6683 7.54467 21.6683ZM7.54467 18.2883C8.12812 18.2883 8.65122 18.1877 9.11396 17.9865C9.5767 17.7853 9.96902 17.4332 10.2909 16.9302C10.6128 16.4273 10.8543 15.7533 11.0152 14.9083C11.1963 14.0431 11.2868 12.9467 11.2868 11.6188V10.0495C11.2868 8.74176 11.1963 7.66538 11.0152 6.82038C10.8341 5.95526 10.5827 5.27121 10.2607 4.76823C9.93884 4.24513 9.54652 3.88299 9.08378 3.6818C8.62104 3.48061 8.108 3.38001 7.54467 3.38001C6.96121 3.38001 6.43812 3.48061 5.97538 3.6818C5.51264 3.88299 5.12031 4.23507 4.79841 4.73805C4.4765 5.24103 4.22501 5.92508 4.04394 6.7902C3.88299 7.6352 3.80251 8.72164 3.80251 10.0495V11.6188C3.80251 12.9265 3.88299 14.013 4.04394 14.8781C4.22501 15.7231 4.4765 16.4071 4.79841 16.9302C5.14043 17.4332 5.53276 17.7853 5.97538 17.9865C6.43812 18.1877 6.96121 18.2883 7.54467 18.2883Z" fill="#F46F17"/>
<path d="M17.816 18.1977L24.6364 11.649C25.3003 11.0052 25.8637 10.4418 26.3264 9.95896C26.7892 9.4761 27.1513 9.03348 27.4128 8.6311C27.6945 8.22872 27.8957 7.85651 28.0164 7.51449C28.1371 7.17246 28.1975 6.82038 28.1975 6.45824C28.1975 5.53276 27.9058 4.78835 27.3223 4.22502C26.7389 3.66168 25.9341 3.38001 24.908 3.38001C23.8819 3.38001 23.0772 3.67174 22.4937 4.25519C21.9103 4.83865 21.6185 5.67359 21.6185 6.76002H17.816C17.816 5.73395 17.977 4.80847 18.2989 3.98359C18.6208 3.13858 19.0835 2.42435 19.6871 1.8409C20.3108 1.25745 21.0552 0.804765 21.9203 0.48286C22.8056 0.160953 23.8015 0 24.908 0C26.0146 0 27.0004 0.160953 27.8655 0.48286C28.7508 0.784646 29.4952 1.22727 30.0987 1.81072C30.7224 2.37406 31.1952 3.05811 31.5171 3.86287C31.839 4.64752 32 5.51264 32 6.45824C32 7.64526 31.6177 8.81217 30.8532 9.95896C30.0887 11.1058 28.9017 12.4135 27.2921 13.8822L22.5541 18.1977H32V21.3967H17.816V18.1977Z" fill="#F46F17"/>
</svg>
