<svg width="53" height="35" viewBox="0 0 53 35" fill="none" xmlns="http://www.w3.org/2000/svg">
<path d="M12 34.464C10.144 34.464 8.464 34.176 6.96 33.6C5.488 32.992 4.24 32.048 3.216 30.768C2.192 29.488 1.392 27.84 0.816 25.824C0.272 23.808 0 21.36 0 18.48V15.984C0 13.136 0.272 10.704 0.816 8.688C1.392 6.672 2.192 5.024 3.216 3.744C4.272 2.432 5.536 1.488 7.008 0.912C8.48 0.304 10.144 0 12 0C13.856 0 15.52 0.304 16.992 0.912C18.496 1.488 19.76 2.416 20.784 3.696C21.84 4.976 22.64 6.624 23.184 8.64C23.728 10.656 24 13.104 24 15.984V18.48C24 21.328 23.712 23.76 23.136 25.776C22.592 27.792 21.792 29.456 20.736 30.768C19.712 32.048 18.464 32.992 16.992 33.6C15.52 34.176 13.856 34.464 12 34.464ZM12 29.088C12.928 29.088 13.76 28.928 14.496 28.608C15.232 28.288 15.856 27.728 16.368 26.928C16.88 26.128 17.264 25.056 17.52 23.712C17.808 22.336 17.952 20.592 17.952 18.48V15.984C17.952 13.904 17.808 12.192 17.52 10.848C17.232 9.472 16.832 8.384 16.32 7.584C15.808 6.752 15.184 6.176 14.448 5.856C13.712 5.536 12.896 5.376 12 5.376C11.072 5.376 10.24 5.536 9.504 5.856C8.768 6.176 8.144 6.736 7.632 7.536C7.12 8.336 6.72 9.424 6.432 10.8C6.176 12.144 6.048 13.872 6.048 15.984V18.48C6.048 20.56 6.176 22.288 6.432 23.664C6.72 25.008 7.12 26.096 7.632 26.928C8.176 27.728 8.8 28.288 9.504 28.608C10.24 28.928 11.072 29.088 12 29.088Z" fill="#F7F7F7"/>
<path d="M40.3369 34.464C36.5609 34.464 33.6329 33.456 31.5529 31.44C29.4729 29.392 28.4009 26.496 28.3369 22.752H34.3849C34.4489 24.96 34.9769 26.576 35.9689 27.6C36.9609 28.592 38.4169 29.088 40.3369 29.088C42.3209 29.088 43.8089 28.64 44.8009 27.744C45.7929 26.816 46.2889 25.584 46.2889 24.048C46.2889 22.672 45.8089 21.536 44.8489 20.64C43.9209 19.744 42.5289 19.296 40.6729 19.296H36.2569V14.208H40.6729C42.2089 14.208 43.4089 13.808 44.2729 13.008C45.1369 12.208 45.5689 11.168 45.5689 9.888C45.5689 8.544 45.1209 7.456 44.2249 6.624C43.3609 5.792 42.0649 5.376 40.3369 5.376C37.1369 5.376 35.3929 7.168 35.1049 10.752H29.0569C29.1209 7.392 30.1289 4.768 32.0809 2.88C34.0649 0.96 36.8169 0 40.3369 0C42.1929 0 43.8249 0.240001 45.2329 0.720002C46.6409 1.168 47.8089 1.808 48.7369 2.64C49.6969 3.472 50.4169 4.48 50.8969 5.664C51.3769 6.816 51.6169 8.096 51.6169 9.504C51.6169 11.04 51.2809 12.432 50.6089 13.68C49.9369 14.928 48.8969 15.936 47.4889 16.704C49.1209 17.504 50.3369 18.592 51.1369 19.968C51.9369 21.312 52.3369 22.816 52.3369 24.48C52.3369 25.952 52.0809 27.312 51.5689 28.56C51.0569 29.776 50.2889 30.832 49.2649 31.728C48.2729 32.592 47.0249 33.264 45.5209 33.744C44.0489 34.224 42.3209 34.464 40.3369 34.464Z" fill="#F7F7F7"/>
</svg>
