<svg width="53" height="35" viewBox="0 0 53 35" fill="none" xmlns="http://www.w3.org/2000/svg">
<path d="M12 34.464C10.144 34.464 8.464 34.176 6.96 33.6C5.488 32.992 4.24 32.048 3.216 30.768C2.192 29.488 1.392 27.84 0.816 25.824C0.272 23.808 0 21.36 0 18.48V15.984C0 13.136 0.272 10.704 0.816 8.688C1.392 6.672 2.192 5.024 3.216 3.744C4.272 2.432 5.536 1.488 7.008 0.912C8.48 0.304 10.144 0 12 0C13.856 0 15.52 0.304 16.992 0.912C18.496 1.488 19.76 2.416 20.784 3.696C21.84 4.976 22.64 6.624 23.184 8.64C23.728 10.656 24 13.104 24 15.984V18.48C24 21.328 23.712 23.76 23.136 25.776C22.592 27.792 21.792 29.456 20.736 30.768C19.712 32.048 18.464 32.992 16.992 33.6C15.52 34.176 13.856 34.464 12 34.464ZM12 29.088C12.928 29.088 13.76 28.928 14.496 28.608C15.232 28.288 15.856 27.728 16.368 26.928C16.88 26.128 17.264 25.056 17.52 23.712C17.808 22.336 17.952 20.592 17.952 18.48V15.984C17.952 13.904 17.808 12.192 17.52 10.848C17.232 9.472 16.832 8.384 16.32 7.584C15.808 6.752 15.184 6.176 14.448 5.856C13.712 5.536 12.896 5.376 12 5.376C11.072 5.376 10.24 5.536 9.504 5.856C8.768 6.176 8.144 6.736 7.632 7.536C7.12 8.336 6.72 9.424 6.432 10.8C6.176 12.144 6.048 13.872 6.048 15.984V18.48C6.048 20.56 6.176 22.288 6.432 23.664C6.72 25.008 7.12 26.096 7.632 26.928C8.176 27.728 8.8 28.288 9.504 28.608C10.24 28.928 11.072 29.088 12 29.088Z" fill="#F7F7F7"/>
<path d="M30.7369 0.432H50.1769V5.52H35.8729L35.2969 13.008C36.9289 11.76 38.9289 11.136 41.2969 11.136C42.9289 11.136 44.4169 11.408 45.7609 11.952C47.1369 12.496 48.3049 13.28 49.2649 14.304C50.2249 15.328 50.9769 16.56 51.5209 18C52.0649 19.44 52.3369 21.04 52.3369 22.8C52.3369 24.56 52.0649 26.16 51.5209 27.6C50.9769 29.04 50.1769 30.272 49.1209 31.296C48.0969 32.288 46.8329 33.072 45.3289 33.648C43.8569 34.192 42.1929 34.464 40.3369 34.464C38.8009 34.464 37.3609 34.272 36.0169 33.888C34.6729 33.472 33.4729 32.88 32.4169 32.112C31.3929 31.344 30.5289 30.416 29.8249 29.328C29.1209 28.208 28.6249 26.928 28.3369 25.488H34.3849C34.8649 26.672 35.6169 27.568 36.6409 28.176C37.6969 28.784 38.9289 29.088 40.3369 29.088C42.1609 29.088 43.6009 28.544 44.6569 27.456C45.7449 26.368 46.2889 24.816 46.2889 22.8C46.2889 20.784 45.7449 19.232 44.6569 18.144C43.6009 17.056 42.1609 16.512 40.3369 16.512C39.0889 16.512 37.9849 16.768 37.0249 17.28C36.0969 17.792 35.3769 18.432 34.8649 19.2H29.2969L30.7369 0.432Z" fill="#F7F7F7"/>
</svg>
