<svg width="623" height="167" viewBox="0 0 623 167" fill="none" xmlns="http://www.w3.org/2000/svg">
<path d="M489.176 53.9702L488.8 53.6399L489.176 53.9702ZM227.243 92.5789L227.551 92.1851L227.243 92.5789ZM749.421 86.8644C747.297 85.4146 744.814 83.4756 741.994 81.1454L741.357 81.9164C744.186 84.2531 746.695 86.2149 748.857 87.6903L749.421 86.8644ZM727.656 68.8546C723.252 65.0459 718.437 60.914 713.253 56.6329L712.616 57.4039C717.792 61.6778 722.6 65.8038 727.001 69.6109L727.656 68.8546ZM698.416 44.8589C693.516 41.1431 688.378 37.431 683.028 33.8259L682.469 34.6552C687.802 38.2484 692.924 41.9495 697.812 45.6558L698.416 44.8589ZM666.974 23.7876C661.537 20.66 655.93 17.7174 650.171 15.0478L649.751 15.955C655.48 18.6109 661.061 21.5397 666.475 24.6544L666.974 23.7876ZM632.59 7.98869C626.611 5.96835 620.504 4.30113 614.288 3.07277L614.094 4.0538C620.263 5.27296 626.329 6.9284 632.269 8.93606L632.59 7.98869ZM595.473 0.795973C589.24 0.531066 582.923 0.761245 576.541 1.56506L576.666 2.55724C582.99 1.7607 589.251 1.53244 595.431 1.79507L595.473 0.795973ZM558.013 5.53053C552.159 7.31313 546.269 9.62317 540.355 12.5176L540.794 13.4158C546.661 10.5444 552.502 8.254 558.304 6.48717L558.013 5.53053ZM524.021 22.0083C519 25.3986 513.971 29.2427 508.943 33.5744L509.595 34.332C514.596 30.0245 519.593 26.2045 524.58 22.837L524.021 22.0083ZM495.289 46.5676C493.124 48.8277 490.961 51.1842 488.8 53.6399L489.551 54.3005C491.703 51.8551 493.857 49.509 496.011 47.2593L495.289 46.5676ZM488.8 53.6399C486.663 56.0679 484.538 58.4396 482.424 60.7555L483.162 61.4297C485.281 59.1092 487.41 56.733 489.551 54.3005L488.8 53.6399ZM469.405 74.4577C464.786 79.1186 460.219 83.5091 455.702 87.6371L456.377 88.3753C460.907 84.2355 465.485 79.8335 470.116 75.1616L469.405 74.4577ZM441.384 99.9837C436.28 104.118 431.238 107.912 426.252 111.38L426.823 112.201C431.83 108.719 436.892 104.909 442.014 100.761L441.384 99.9837ZM410.247 121.511C404.545 124.759 398.913 127.578 393.343 129.985L393.74 130.903C399.345 128.48 405.01 125.645 410.742 122.38L410.247 121.511ZM375.568 136.359C369.336 138.13 363.174 139.393 357.068 140.177L357.195 141.168C363.351 140.378 369.563 139.105 375.841 137.32L375.568 136.359ZM338.21 141.101C331.91 140.912 325.655 140.229 319.433 139.085L319.252 140.069C325.522 141.221 331.827 141.91 338.18 142.1L338.21 141.101ZM301.136 134.399C295.255 132.476 289.389 130.164 283.528 127.492L283.113 128.402C289.006 131.088 294.906 133.414 300.825 135.35L301.136 134.399ZM266.677 118.845C261.313 115.795 255.943 112.468 250.557 108.885L250.003 109.717C255.406 113.312 260.797 116.652 266.183 119.714L266.677 118.845ZM235.083 97.945C232.578 96.0742 230.068 94.1535 227.551 92.1851L226.935 92.9727C229.457 94.9455 231.973 96.8708 234.485 98.7463L235.083 97.945ZM227.551 92.1851C224.862 90.0815 222.196 88.0584 219.55 86.1182L218.959 86.9245C221.595 88.8582 224.253 90.875 226.935 92.9727L227.551 92.1851ZM202.915 74.8754C196.963 71.2184 191.096 68.0322 185.289 65.3458L184.869 66.2535C190.636 68.9211 196.468 72.088 202.392 75.7274L202.915 74.8754ZM166.448 58.3739C159.814 56.5611 153.22 55.4659 146.625 55.134L146.575 56.1328C153.092 56.4608 159.614 57.5433 166.184 59.3385L166.448 58.3739ZM126.586 56.5141C120.233 57.7178 113.847 59.6621 107.39 62.3838L107.779 63.3053C114.175 60.6092 120.493 58.6863 126.772 57.4966L126.586 56.5141ZM89.6302 71.7298C84.2779 75.0973 78.8581 78.9957 73.3509 83.4446L73.9792 84.2225C79.4593 79.7956 84.8473 75.9206 90.1627 72.5763L89.6302 71.7298ZM58.3301 96.7361C53.7395 101.142 49.0799 105.919 44.3409 111.078L45.0774 111.755C49.8035 106.609 54.4485 101.847 59.0225 97.4576L58.3301 96.7361ZM31.1483 126.18C27.0312 131.117 22.8511 136.331 18.6017 141.828L19.3929 142.44C23.6353 136.951 27.8077 131.747 31.9162 126.821L31.1483 126.18ZM6.61023 157.842C4.66547 160.517 2.70593 163.25 0.731079 166.04L1.54724 166.618C3.51978 163.831 5.47687 161.102 7.41907 158.43L6.61023 157.842Z" fill="#F46F17"/>
</svg>
