<svg width="70" height="26" viewBox="0 0 70 26" fill="none" xmlns="http://www.w3.org/2000/svg">
<path d="M0 7.1086H3.19848V5.8646C3.19848 3.96897 3.69602 2.52356 4.69111 1.52835C5.68619 0.50945 7.10774 0 8.95575 0H12.0831V3.62539H9.59545C8.07913 3.62539 7.32097 4.46657 7.32097 6.14894V7.1086H11.3724V10.734H7.32097V24.8801H3.19848V10.734H0V7.1086ZM21.0508 24.8801C19.1791 24.8801 17.7338 24.3825 16.715 23.3873C15.72 22.3684 15.2224 20.9111 15.2224 19.0155V0H19.3449V18.589C19.3449 19.5131 19.5463 20.1884 19.9491 20.615C20.3518 21.0415 20.9678 21.2547 21.797 21.2547H22.6855V24.8801H21.0508ZM32.6418 25.2C30.5569 25.2 28.9103 24.5602 27.702 23.2807C26.4936 21.9774 25.8895 20.0226 25.8895 17.4161V7.1086H30.012V17.4161C30.012 18.7193 30.32 19.7027 30.936 20.3661C31.552 21.0296 32.3575 21.3614 33.3526 21.3614C34.5609 21.3614 35.5205 21.0178 36.2312 20.3306C36.9657 19.6434 37.3566 18.7312 37.404 17.5938V7.1086H41.5265V24.8801H38.2925L37.9726 22.9252C37.3329 23.6598 36.5629 24.2285 35.6626 24.6313C34.7623 25.0104 33.7554 25.2 32.6418 25.2ZM44.7403 7.1086H49.2181L53.8382 20.4017L58.245 7.1086H62.5096L56.2904 24.8801H51.3149L44.7403 7.1086ZM65.8775 7.1086H70V24.8801H65.8775V7.1086Z" fill="#F46F17"/>
</svg>
