<svg width="70" height="26" viewBox="0 0 70 26" fill="none" xmlns="http://www.w3.org/2000/svg">
<path d="M0 7.50851H3.19848V6.2645C3.19848 4.36887 3.69602 2.92346 4.69111 1.92825C5.68619 0.909352 7.10774 0.399902 8.95575 0.399902H12.0831V4.02529H9.59545C8.07913 4.02529 7.32097 4.86648 7.32097 6.54885V7.50851H11.3724V11.1339H7.32097V25.28H3.19848V11.1339H0V7.50851ZM21.0508 25.28C19.1791 25.28 17.7338 24.7824 16.715 23.7872C15.72 22.7683 15.2224 21.311 15.2224 19.4154V0.399902H19.3449V18.9889C19.3449 19.913 19.5463 20.5883 19.9491 21.0149C20.3518 21.4414 20.9678 21.6546 21.797 21.6546H22.6855V25.28H21.0508ZM32.6418 25.5999C30.5569 25.5999 28.9103 24.9601 27.702 23.6806C26.4936 22.3773 25.8895 20.4225 25.8895 17.816V7.50851H30.012V17.816C30.012 19.1192 30.32 20.1026 30.936 20.7661C31.552 21.4295 32.3575 21.7613 33.3526 21.7613C34.5609 21.7613 35.5205 21.4177 36.2312 20.7305C36.9657 20.0433 37.3566 19.1311 37.404 17.9937V7.50851H41.5265V25.28H38.2925L37.9726 23.3251C37.3329 24.0597 36.5629 24.6284 35.6626 25.0312C34.7623 25.4103 33.7554 25.5999 32.6418 25.5999ZM44.7403 7.50851H49.2181L53.8382 20.8016L58.245 7.50851H62.5096L56.2904 25.28H51.3149L44.7403 7.50851ZM65.8775 7.50851H70V25.28H65.8775V7.50851Z" fill="white"/>
</svg>
